<?xml version="1.0" standalone="no"?>
<!DOCTYPE svg PUBLIC "-//W3C//DTD SVG 20010904//EN"
 "http://www.w3.org/TR/2001/REC-SVG-20010904/DTD/svg10.dtd">
<svg version="1.0" xmlns="http://www.w3.org/2000/svg"
 width="288.000000pt" height="288.000000pt" viewBox="0 0 288.000000 288.000000"
 preserveAspectRatio="xMidYMid meet">
<metadata>
Created by potrace 1.14, written by Peter Selinger 2001-2017
</metadata>
<g transform="translate(0.000000,288.000000) scale(0.100000,-0.100000)"
fill="#000000" stroke="none">
<path d="M1150 2765 c0 -9 6 -12 15 -9 8 4 15 10 15 15 0 5 -7 9 -15 9 -8 0
-15 -7 -15 -15z"/>
<path d="M1614 2730 l0 -50 93 0 c98 0 99 1 87 48 -8 30 -20 28 -51 -8 -36
-43 -64 -39 -88 12 -28 59 -41 58 -41 -2z"/>
<path d="M1000 2719 c0 -20 -8 -39 -22 -50 -26 -24 -30 -24 -75 1 -54 29 -65
26 -58 -12 8 -47 -6 -63 -55 -61 -23 1 -48 7 -55 13 -18 15 -29 -4 -15 -29 20
-39 -15 -69 -67 -56 -18 4 -29 1 -39 -12 -19 -26 -17 -43 5 -43 11 0 23 -4 26
-10 3 -5 23 -10 44 -10 30 0 42 6 59 30 12 16 22 34 22 40 0 5 8 10 18 10 10
0 27 9 38 20 50 53 59 60 70 60 11 0 66 32 99 57 6 5 23 14 39 21 l29 13 -23
24 c-31 33 -40 31 -40 -6z"/>
<path d="M1250 2720 c-36 -18 -92 -40 -104 -40 -13 0 -84 -35 -126 -62 -14 -9
-35 -19 -48 -23 -13 -4 -36 -19 -50 -35 -15 -15 -36 -29 -47 -31 -11 -3 -26
-17 -33 -32 -7 -15 -25 -35 -40 -45 -35 -22 -41 -29 -76 -79 -16 -24 -32 -43
-36 -43 -4 0 -15 -19 -26 -42 -10 -24 -29 -57 -41 -74 -13 -17 -23 -39 -23
-48 0 -10 -9 -29 -20 -43 -11 -14 -20 -34 -20 -44 0 -11 -4 -27 -9 -37 -5 -9
-14 -35 -19 -57 -5 -22 -15 -60 -22 -85 -27 -106 -32 -142 -36 -264 -2 -71 -6
-132 -9 -134 -3 -3 2 -13 11 -23 16 -18 24 -46 42 -151 5 -26 16 -58 25 -71
15 -23 33 -93 29 -110 -2 -5 6 -11 16 -14 10 -2 27 -19 37 -36 11 -18 20 -26
23 -18 2 7 -6 22 -17 33 -12 11 -24 33 -28 49 -3 16 -9 29 -13 29 -12 0 -31
90 -56 260 -15 99 -11 180 11 275 3 11 9 45 13 75 4 30 12 61 16 69 5 8 11 24
13 35 19 117 30 156 44 156 5 0 9 7 9 15 0 29 40 129 55 138 8 4 15 14 15 21
0 8 7 16 15 20 8 3 15 10 15 15 0 8 20 33 80 97 11 12 20 29 20 38 0 9 7 16
16 16 8 0 13 4 10 9 -3 5 7 14 23 21 16 6 37 20 47 31 9 10 23 19 31 19 7 0
13 5 13 10 0 6 18 18 40 27 22 10 40 21 40 25 0 5 11 8 25 8 14 0 25 -4 25
-10 0 -5 -10 -10 -23 -10 -13 0 -31 -6 -41 -13 -16 -12 -13 -13 20 -9 22 3 42
10 46 16 4 6 11 11 16 11 5 0 16 8 25 17 12 12 14 18 4 21 -6 3 -1 6 13 8 57
4 77 8 125 24 92 30 111 35 127 35 9 0 18 7 22 15 6 16 -5 19 -56 15 -20 -1
-28 3 -28 14 0 9 -6 16 -12 17 -7 1 -29 2 -48 4 -19 2 -42 -1 -50 -5z m-115
-140 c-3 -5 -10 -10 -16 -10 -5 0 -9 5 -9 10 0 6 7 10 16 10 8 0 12 -4 9 -10z"/>
<path d="M1900 2680 c-12 -8 -9 -10 13 -10 15 0 27 5 27 10 0 13 -20 13 -40 0z"/>
<path d="M1595 2629 c-145 -17 -210 -31 -241 -49 -18 -12 -36 -20 -41 -19 -9
2 -45 -12 -53 -20 -3 -3 -30 -19 -60 -35 -30 -15 -77 -41 -105 -56 -27 -16
-59 -29 -70 -29 -12 -1 -28 -14 -38 -31 -10 -16 -25 -30 -33 -30 -8 0 -28 -16
-45 -35 -17 -19 -37 -35 -44 -35 -12 0 -25 -21 -25 -41 0 -11 80 -5 89 7 3 5
37 17 76 27 42 11 75 26 83 38 7 11 30 28 50 38 20 11 47 29 59 40 12 12 29
21 38 21 8 0 15 5 15 10 0 6 7 10 15 10 8 0 40 12 72 26 110 50 147 56 362 61
205 5 237 2 365 -33 27 -8 67 -14 87 -14 21 0 49 -4 63 -10 18 -7 26 -6 26 2
0 15 -41 49 -51 42 -5 -3 -9 -1 -9 3 0 5 -17 15 -37 22 -68 23 -93 36 -93 46
0 6 -19 12 -42 14 -22 1 -49 6 -59 12 -11 5 -20 6 -24 0 -3 -6 -20 -4 -41 5
-40 17 -199 24 -289 13z"/>
<path d="M1240 2590 c0 -5 5 -10 11 -10 5 0 7 5 4 10 -3 6 -8 10 -11 10 -2 0
-4 -4 -4 -10z"/>
<path d="M1580 2450 c-52 -5 -96 -14 -98 -20 -2 -5 -16 -10 -30 -10 -15 0 -38
-9 -52 -20 -14 -11 -33 -20 -42 -20 -10 0 -18 -4 -18 -10 0 -5 21 -9 48 -10
81 -1 122 -4 122 -10 0 -3 46 -5 103 -4 101 0 187 -13 187 -28 0 -4 11 -8 24
-8 14 0 28 -4 31 -10 3 -5 17 -10 31 -10 14 0 41 -7 62 -17 43 -19 37 -17 85
-26 20 -5 37 -12 37 -16 0 -5 11 -11 25 -13 20 -4 23 -3 14 8 -6 7 -20 16 -32
20 -24 8 -80 45 -85 57 -2 4 -10 7 -17 7 -8 0 -20 6 -27 13 -7 7 -24 18 -38
24 -19 9 -20 12 -7 12 9 1 25 -3 35 -9 46 -25 92 -41 101 -35 6 3 8 0 5 -9 -6
-15 32 -34 44 -22 8 9 -49 66 -60 60 -5 -4 -16 3 -24 15 -9 12 -19 19 -23 17
-11 -7 -28 7 -35 32 -6 17 -3 22 11 22 15 0 16 -2 3 -10 -10 -6 2 -8 36 -4 33
4 54 3 58 -5 4 -6 13 -11 21 -11 8 0 26 -5 42 -12 15 -6 31 -12 35 -12 3 -1
10 -4 14 -8 4 -5 17 -8 28 -8 16 0 9 9 -28 35 -27 19 -45 35 -40 35 5 0 2 5
-8 10 -23 14 -423 21 -538 10z"/>
<path d="M1345 2320 l30 -8 -32 -1 c-18 0 -33 -6 -33 -12 0 -8 -5 -8 -15 1
-12 10 -15 10 -15 0 0 -7 -8 -10 -20 -7 -27 7 -78 -13 -106 -40 -13 -13 -21
-23 -19 -23 3 0 -4 -9 -15 -20 -11 -11 -22 -32 -26 -47 -4 -16 -10 -32 -14
-38 -4 -5 -11 -25 -15 -42 -5 -24 -3 -33 7 -33 9 -1 7 -5 -5 -14 -9 -7 -17
-24 -17 -37 -1 -67 -17 -246 -23 -256 -4 -6 -2 -23 4 -37 9 -20 9 -29 -2 -43
-7 -10 -9 -15 -4 -10 12 10 37 -51 30 -74 -3 -9 1 -24 10 -32 17 -17 20 -31 5
-22 -20 12 -10 -6 17 -31 25 -23 27 -23 45 -8 10 10 18 26 18 38 0 15 3 17 12
8 9 -9 16 -8 30 5 10 9 18 22 18 28 0 7 6 15 14 18 18 7 30 58 16 67 -6 4 -18
25 -25 46 -8 21 -14 34 -15 27 0 -7 -9 -17 -20 -23 -26 -14 -60 7 -60 36 0 18
8 23 44 28 42 7 44 8 44 41 0 23 -5 35 -14 35 -18 0 -17 14 2 70 15 42 25 92
28 148 0 12 5 22 9 22 5 0 6 4 2 9 -3 5 5 17 17 25 22 16 22 16 1 16 -11 0
-24 7 -27 16 -10 26 -7 34 11 27 11 -4 14 -3 9 5 -4 7 -1 12 8 12 9 0 16 5 16
10 0 6 -10 10 -22 10 -21 0 -21 0 -2 15 27 20 34 19 34 -9 0 -13 6 -26 13 -29
9 -3 9 -9 -1 -27 -21 -34 -5 -37 26 -4 15 16 41 34 57 40 66 23 189 13 313
-25 18 -5 33 -10 35 -10 3 0 29 -7 69 -20 21 -7 42 -9 48 -6 5 3 10 2 10 -2 0
-5 16 -15 35 -22 20 -7 41 -21 48 -32 13 -20 42 -25 52 -9 4 6 1 9 -6 8 -7 -2
-14 4 -15 12 -3 32 -5 35 -14 20 -8 -13 -10 -12 -10 4 0 14 -3 16 -14 7 -10
-9 -16 -8 -26 4 -11 13 -10 14 5 9 13 -5 16 -4 11 4 -4 7 -17 10 -32 6 -18 -5
-24 -2 -24 11 0 9 -4 14 -9 11 -5 -4 -11 0 -14 6 -3 10 -8 10 -18 2 -8 -6 -27
-7 -44 -4 l-30 7 28 7 c29 9 37 26 12 26 -8 0 -15 -4 -15 -10 0 -13 -27 -13
-32 1 -2 5 -15 12 -30 13 -19 2 -25 -1 -21 -10 3 -8 0 -14 -6 -14 -6 0 -11 4
-11 8 0 4 -18 13 -40 19 -22 5 -40 6 -40 2 0 -5 -4 -9 -10 -9 -5 0 -9 5 -7 11
1 6 -8 12 -20 14 -13 1 -23 -2 -23 -7 0 -4 -5 -8 -11 -8 -13 0 -39 25 -39 39
0 10 35 25 59 26 22 0 25 23 4 27 -30 6 -63 -3 -63 -18 0 -8 -4 -14 -10 -14
-5 0 -7 -7 -3 -17 5 -13 2 -15 -15 -11 -12 4 -24 2 -27 -3 -3 -5 -14 -3 -24 3
-16 9 -17 15 -7 30 9 16 7 22 -8 34 -11 8 -31 13 -45 13 -25 -1 -25 -2 4 -9z
m-191 -505 c3 -9 0 -15 -10 -15 -9 0 -12 -5 -8 -12 4 -7 3 -10 -1 -5 -5 4 -10
16 -12 27 -3 23 22 27 31 5z m26 -20 c0 -8 -7 -15 -15 -15 -13 0 -14 3 -3 15
16 18 18 18 18 0z m-25 -115 c3 -5 -1 -10 -10 -10 -9 0 -13 5 -10 10 3 6 8 10
10 10 2 0 7 -4 10 -10z"/>
<path d="M1686 2303 c10 -10 27 -16 39 -15 11 2 32 -7 46 -20 32 -29 61 -36
52 -12 -4 12 -2 15 8 12 8 -3 14 -11 14 -19 1 -25 16 -39 44 -39 19 0 36 -10
57 -36 16 -19 43 -41 60 -49 18 -7 40 -27 50 -44 10 -17 24 -31 32 -31 8 0 19
-13 25 -30 6 -16 17 -30 25 -30 9 0 10 -5 4 -17 -10 -17 6 -43 26 -43 6 0 36
-26 67 -59 43 -43 63 -57 78 -53 16 4 18 1 13 -15 -9 -27 22 -53 58 -49 28 3
28 3 23 -40 -2 -23 -1 -46 3 -51 4 -4 15 -30 25 -58 10 -27 28 -74 41 -102 15
-34 26 -82 30 -135 3 -46 13 -93 20 -105 24 -39 0 -383 -26 -383 -4 0 -5 -13
-2 -28 3 -22 -2 -32 -22 -46 -14 -9 -26 -23 -26 -30 0 -8 -7 -16 -15 -20 -10
-4 -15 1 -15 14 0 11 5 20 12 20 6 0 8 3 5 7 -4 3 5 17 19 30 17 16 24 31 21
43 -3 13 -1 18 6 13 6 -4 8 2 5 15 -4 12 -2 20 3 16 10 -6 12 48 10 226 -2
101 -4 117 -21 132 -23 19 -26 48 -5 48 11 0 12 5 5 26 -6 14 -10 36 -10 49 0
12 -6 25 -14 28 -7 3 -21 30 -31 60 -9 30 -27 66 -40 81 -13 16 -26 33 -28 39
-2 7 -8 9 -12 4 -5 -4 -4 -17 2 -30 18 -35 23 -58 14 -53 -5 3 -12 -2 -16 -12
-6 -16 -7 -16 -21 2 -19 27 -18 6 2 -22 9 -13 13 -29 11 -36 -3 -8 -1 -18 4
-23 6 -6 19 -50 29 -99 10 -49 19 -80 19 -69 1 17 3 18 16 4 9 -9 17 -29 18
-45 2 -23 -2 -29 -17 -27 -17 1 -18 -6 -11 -110 10 -174 3 -271 -20 -297 -9
-10 -13 -25 -9 -34 7 -19 16 -20 31 -5 8 8 13 8 17 0 7 -11 -20 -70 -38 -82
-4 -4 5 -7 20 -7 33 0 46 15 34 38 -11 20 20 59 51 63 19 3 23 10 24 40 1 27
10 44 34 66 18 17 38 28 47 24 17 -6 20 27 4 43 -7 7 -7 23 2 50 11 34 18 39
46 42 40 4 44 32 7 52 -26 14 -33 34 -15 45 6 3 10 15 10 26 0 12 7 19 20 19
15 0 20 7 20 29 0 17 -4 32 -9 35 -4 3 -4 24 2 46 9 32 16 40 34 40 30 0 29
14 -2 34 -20 13 -25 25 -25 55 0 34 5 42 38 62 l37 22 -37 15 c-36 14 -38 17
-38 57 0 38 3 44 30 55 37 15 34 31 -7 42 -44 11 -52 62 -16 100 29 30 23 48
-15 48 -20 0 -30 8 -39 27 -18 37 -17 42 12 65 36 28 31 45 -16 51 -23 3 -45
11 -50 18 -9 16 0 -105 11 -146 17 -61 -18 -161 -73 -204 -25 -19 -22 5 3 26
11 10 20 23 20 30 0 7 5 13 10 13 6 0 10 17 10 38 0 21 5 43 11 49 13 13 4 33
-17 33 -8 0 -14 4 -14 10 0 30 -178 205 -240 236 -30 15 -63 35 -74 45 -10 10
-35 24 -55 30 -19 7 -44 20 -55 31 -25 23 -74 48 -94 48 -7 0 -28 6 -45 14
-89 41 -159 66 -182 66 -15 0 -34 4 -43 9 -9 4 -32 11 -50 14 -31 6 -32 6 -16
-10z m684 -442 c0 -14 -18 -23 -30 -16 -6 4 -8 11 -5 16 8 12 35 12 35 0z m50
-50 c0 -22 -16 -36 -24 -22 -4 5 -2 12 4 16 6 4 8 11 5 16 -4 5 -1 9 4 9 6 0
11 -9 11 -19z m123 -346 c-8 -22 -22 -18 -16 5 3 11 9 17 14 15 4 -3 6 -12 2
-20z"/>
<path d="M398 2296 c-11 -8 -15 -20 -11 -35 6 -23 6 -23 29 6 13 15 23 31 24
36 0 11 -23 8 -42 -7z"/>
<path d="M2100 2271 c0 -6 5 -13 10 -16 6 -3 10 1 10 9 0 9 -4 16 -10 16 -5 0
-10 -4 -10 -9z"/>
<path d="M280 2191 c0 -11 5 -23 10 -26 14 -9 13 -68 -2 -83 -7 -7 -28 -12
-48 -12 -47 0 -52 -6 -35 -41 8 -15 15 -37 15 -48 0 -22 -44 -61 -70 -61 -10
0 -23 -7 -30 -15 -9 -11 -10 -15 -1 -15 18 0 39 -24 46 -53 6 -21 2 -28 -24
-41 -16 -9 -37 -16 -45 -16 -23 0 -31 -22 -12 -35 9 -7 21 -27 27 -44 11 -31
10 -34 -31 -71 -38 -34 -46 -60 -20 -60 18 0 50 -34 50 -53 0 -10 -16 -34 -35
-55 l-36 -36 35 -15 c19 -8 41 -26 48 -39 12 -22 9 -27 -31 -62 -46 -40 -45
-44 9 -55 19 -4 41 -15 48 -24 15 -17 15 -22 -9 154 -23 177 -19 255 22 385
24 77 87 210 99 210 5 0 11 12 15 28 3 15 19 43 36 62 29 32 47 67 63 118 7
21 4 22 -43 22 -44 0 -51 -3 -51 -19z"/>
<path d="M2417 2190 c6 -22 18 -26 28 -10 3 6 1 10 -5 10 -6 0 -8 5 -5 10 3 6
0 10 -8 10 -10 0 -13 -7 -10 -20z"/>
<path d="M2510 2101 c0 -5 5 -13 10 -16 6 -3 10 -2 10 4 0 5 -4 13 -10 16 -5
3 -10 2 -10 -4z"/>
<path d="M1655 2039 c-93 -22 -185 -54 -182 -63 5 -16 27 -19 27 -3 0 11 14
14 56 14 31 0 59 5 63 11 7 12 121 8 204 -7 57 -11 66 -16 108 -53 10 -10 24
-18 29 -18 6 0 10 -4 10 -9 0 -5 13 -12 30 -16 16 -4 36 -15 42 -24 12 -17 49
-41 62 -41 3 0 6 5 6 10 0 6 -7 10 -16 10 -9 0 -27 11 -40 25 -13 14 -27 25
-31 25 -4 0 -21 16 -37 35 -17 19 -50 47 -75 62 -25 14 -49 31 -53 37 -9 14
-151 18 -203 5z"/>
<path d="M2025 2040 c3 -5 10 -10 16 -10 5 0 9 5 9 10 0 6 -7 10 -16 10 -8 0
-12 -4 -9 -10z"/>
<path d="M2086 2011 c-3 -5 6 -16 20 -26 l25 -16 -16 25 c-19 29 -21 30 -29
17z"/>
<path d="M1940 2001 c0 -8 41 -23 47 -17 2 1 -8 8 -22 14 -14 6 -25 8 -25 3z"/>
<path d="M849 1988 c0 -7 -3 -25 -5 -39 -4 -25 19 -59 29 -42 7 14 -5 93 -14
93 -5 0 -9 -6 -10 -12z"/>
<path d="M1402 1970 c-40 -9 -57 -24 -47 -40 6 -9 9 -9 15 1 5 7 15 14 23 15
8 1 27 9 43 17 31 17 19 20 -34 7z"/>
<path d="M659 1924 c-5 -15 -7 -29 -5 -32 5 -4 10 6 22 46 7 23 -7 12 -17 -14z"/>
<path d="M768 1915 c-3 -14 -1 -25 3 -25 5 0 9 11 9 25 0 14 -2 25 -4 25 -2 0
-6 -11 -8 -25z"/>
<path d="M1644 1925 c3 -21 16 -31 16 -12 0 9 -4 18 -9 21 -5 4 -8 -1 -7 -9z"/>
<path d="M806 1921 c-3 -5 1 -14 8 -20 12 -10 13 -8 9 8 -6 23 -9 25 -17 12z"/>
<path d="M1302 1913 c-1 -7 -17 -19 -36 -28 -51 -24 -53 -44 -8 -61 29 -12 38
-22 40 -41 1 -13 11 -37 22 -53 11 -15 20 -38 20 -49 0 -23 7 -26 29 -12 9 6
11 15 6 27 -15 33 -13 53 6 59 10 3 21 14 24 24 3 10 19 31 35 47 16 16 30 32
30 37 0 11 -31 8 -75 -8 -70 -25 -83 -21 -88 28 -2 23 -4 37 -5 30z m41 -147
c4 -10 0 -12 -15 -8 -15 4 -17 7 -6 13 17 11 15 11 21 -5z"/>
<path d="M1550 1883 c-19 -13 -21 -22 -17 -57 4 -27 -1 -60 -14 -100 -19 -56
-19 -61 -4 -72 15 -11 15 -13 -2 -22 -12 -7 -15 -14 -8 -21 10 -10 38 10 110
74 36 32 59 43 108 50 48 7 114 -7 132 -29 6 -7 25 -21 43 -32 18 -10 35 -30
39 -44 3 -14 14 -34 23 -45 10 -11 28 -39 40 -63 12 -23 26 -45 31 -48 5 -3 9
-13 9 -22 0 -27 52 -186 66 -203 15 -16 38 -119 29 -127 -3 -3 2 -16 11 -30
11 -16 14 -34 9 -56 -3 -17 -7 -49 -9 -71 -1 -22 -5 -51 -9 -65 -4 -14 -9 -44
-11 -67 -3 -23 -10 -52 -16 -64 -7 -11 -10 -30 -7 -40 3 -10 2 -17 -3 -14 -4
3 -10 -6 -12 -20 -3 -13 -2 -23 1 -22 3 1 8 -2 11 -8 3 -5 -5 -14 -18 -20 -17
-7 -22 -16 -19 -32 3 -15 -1 -23 -9 -23 -8 0 -14 5 -14 12 0 9 -3 9 -12 0 -10
-10 -10 -15 1 -21 17 -11 5 -32 -17 -29 -11 2 -18 -5 -20 -22 -2 -13 -20 -39
-40 -57 -20 -18 -33 -33 -29 -33 4 0 -20 -27 -54 -60 -34 -33 -69 -60 -78 -60
-22 0 -117 -45 -126 -60 -5 -8 8 -10 47 -7 39 3 54 9 56 21 4 19 18 21 25 4 4
-10 7 -10 15 0 5 8 17 12 28 10 12 -2 28 11 49 44 30 45 32 47 53 32 13 -9 19
-21 16 -27 -4 -7 4 -1 18 13 13 14 38 34 54 45 36 25 104 96 104 109 0 5 13
21 29 35 15 14 36 40 45 56 26 48 40 70 51 77 6 5 4 8 -5 8 -9 0 -11 3 -5 8 6
4 16 27 23 52 7 25 19 69 27 98 26 92 17 277 -16 357 -5 11 -18 47 -29 80 -12
33 -28 80 -37 104 -15 44 -61 123 -75 129 -5 2 -8 9 -8 14 0 6 -17 34 -38 62
-22 28 -46 61 -54 73 -18 28 -169 152 -185 153 -6 0 -47 18 -90 40 -91 47
-175 60 -213 33z m628 -1238 c-2 -5 -8 -10 -15 -11 -6 -1 -9 4 -6 12 6 16 27
15 21 -1z"/>
<path d="M774 1869 c-10 -16 -8 -106 4 -137 5 -15 16 -53 23 -85 7 -31 18 -62
26 -68 7 -6 13 -18 13 -25 0 -8 7 -14 15 -14 9 0 15 -9 15 -22 1 -26 27 -62
112 -150 49 -52 61 -60 86 -56 26 4 30 1 27 -18 -2 -18 4 -24 26 -29 16 -4 34
-3 40 1 9 5 10 2 5 -11 -7 -19 22 -55 46 -55 7 -1 31 -9 53 -20 38 -18 163
-29 177 -14 14 13 -39 73 -76 85 -24 8 -45 24 -55 41 -9 16 -27 31 -41 34 -14
3 -35 9 -47 14 -19 8 -21 6 -17 -16 3 -14 2 -29 -1 -34 -6 -10 -66 18 -77 37
-5 6 -18 9 -30 5 -13 -3 -19 -1 -15 5 6 10 -19 28 -35 25 -4 -1 -5 4 -3 11 3
6 -6 24 -20 39 -14 15 -25 31 -25 37 0 5 -13 23 -29 40 -33 36 -52 81 -44 109
3 12 -2 22 -13 26 -16 6 -16 8 1 26 24 27 11 40 -34 34 -29 -4 -40 -2 -44 10
-4 9 -2 16 4 16 6 0 8 4 5 9 -3 5 1 11 9 15 11 4 15 22 15 70 0 55 -3 64 -20
69 -13 3 -25 -2 -35 -16 -13 -18 -17 -20 -25 -7 -5 8 -6 18 -4 22 3 4 3 8 0 8
-3 0 -8 -5 -12 -11z m37 -172 c-10 -9 -11 -8 -5 6 3 10 9 15 12 12 3 -3 0 -11
-7 -18z m54 -67 c3 -5 1 -10 -4 -10 -6 0 -11 5 -11 10 0 6 2 10 4 10 3 0 8 -4
11 -10z m396 -390 c13 -7 19 -7 19 0 0 17 64 11 80 -8 46 -55 45 -53 9 -45
-19 3 -39 13 -45 21 -8 10 -13 12 -18 4 -4 -7 -15 -8 -29 -3 -12 4 -28 6 -34
4 -8 -3 -13 4 -13 16 0 24 4 25 31 11z"/>
<path d="M2155 1820 c-3 -5 1 -10 10 -10 9 0 13 5 10 10 -3 6 -8 10 -10 10 -2
0 -7 -4 -10 -10z"/>
<path d="M2200 1750 c0 -5 5 -10 11 -10 5 0 7 5 4 10 -3 6 -8 10 -11 10 -2 0
-4 -4 -4 -10z"/>
<path d="M1780 1682 c-25 -8 -50 -34 -50 -52 0 -10 -13 -23 -30 -30 -46 -19
-45 -28 2 -50 72 -34 148 -88 148 -106 0 -4 13 -19 29 -34 20 -20 33 -25 44
-19 14 8 16 1 16 -56 0 -46 4 -70 15 -81 9 -8 16 -23 16 -33 0 -9 4 -21 8 -27
5 -5 13 -27 19 -49 6 -22 18 -65 27 -96 22 -76 20 -177 -3 -243 -18 -53 -18
-53 1 -48 11 3 17 10 14 18 -3 8 -1 14 5 14 6 0 7 4 4 10 -3 5 1 22 9 37 30
58 46 133 48 240 2 76 -1 114 -9 125 -7 8 -10 18 -6 21 3 4 1 12 -4 19 -5 7
-18 38 -27 68 -30 98 -86 202 -86 160 0 -5 -7 -7 -15 -4 -8 4 -15 14 -15 23 0
12 -10 18 -37 19 -23 2 -42 10 -50 22 -8 11 -23 20 -34 20 -27 0 -26 46 1 55
11 4 18 11 15 16 -4 5 0 9 7 9 9 0 9 3 -2 10 -13 8 -12 10 4 10 15 0 16 3 7
14 -13 16 -49 25 -71 18z"/>
<path d="M960 1600 c0 -5 7 -10 16 -10 8 0 12 5 9 10 -3 6 -10 10 -16 10 -5 0
-9 -4 -9 -10z"/>
<path d="M1470 1590 c0 -5 5 -10 11 -10 5 0 7 5 4 10 -3 6 -8 10 -11 10 -2 0
-4 -4 -4 -10z"/>
<path d="M1507 1523 c-12 -11 -8 -23 8 -23 8 0 15 7 15 15 0 16 -12 20 -23 8z"/>
<path d="M1000 1500 c0 -5 5 -10 11 -10 5 0 7 5 4 10 -3 6 -8 10 -11 10 -2 0
-4 -4 -4 -10z"/>
<path d="M1479 1410 c-9 -5 -15 -19 -13 -32 1 -13 3 -33 3 -45 1 -13 7 -23 15
-23 8 0 16 -5 18 -11 2 -6 21 -12 43 -14 75 -4 132 -26 162 -59 36 -41 53 -71
53 -94 0 -10 4 -22 9 -27 5 -6 11 -28 13 -50 3 -35 6 -40 25 -37 18 2 21 -1
16 -20 -3 -13 -11 -37 -19 -55 -16 -36 -18 -63 -4 -63 25 0 -40 -126 -96 -184
-6 -6 -17 -22 -23 -35 -11 -19 -11 -22 0 -15 7 4 40 9 71 11 32 2 71 9 86 15
15 6 40 12 56 14 29 3 79 44 54 44 -8 1 -5 7 6 15 11 8 14 15 8 15 -12 0 -9
51 4 72 3 4 -1 8 -8 8 -14 0 -18 66 -5 87 4 6 3 14 -3 18 -5 3 -10 39 -10 78
0 44 -6 83 -15 101 -8 15 -15 34 -15 42 0 7 -13 39 -30 71 -16 31 -30 61 -30
66 0 5 -16 25 -35 44 -19 19 -35 39 -35 43 0 16 -29 18 -125 10 -73 -6 -104
-5 -129 5 -19 8 -37 10 -47 5z m18 -52 c-3 -8 -6 -5 -6 6 -1 11 2 17 5 13 3
-3 4 -12 1 -19z"/>
<path d="M1166 1345 c-3 -9 0 -15 9 -15 8 0 15 7 15 15 0 8 -4 15 -9 15 -5 0
-11 -7 -15 -15z"/>
<path d="M132 1157 l-31 -45 31 -6 c57 -11 60 -9 52 32 -12 66 -18 69 -52 19z"/>
<path d="M650 1057 c0 -17 33 -63 64 -86 l31 -25 -25 29 c-14 16 -30 34 -36
40 -6 5 -16 19 -22 30 -6 11 -12 16 -12 12z"/>
<path d="M167 1002 c-23 -25 -21 -39 6 -46 50 -13 56 -9 44 29 -12 39 -26 44
-50 17z"/>
<path d="M1318 933 c7 -3 16 -2 19 1 4 3 -2 6 -13 5 -11 0 -14 -3 -6 -6z"/>
<path d="M770 895 c0 -14 4 -25 9 -25 21 0 61 -51 61 -79 0 -37 15 -47 37 -25
11 11 18 13 21 5 4 -13 32 -15 32 -2 0 5 -9 12 -19 16 -11 3 -26 20 -35 38
-21 42 -35 58 -68 80 -35 22 -38 22 -38 -8z"/>
<path d="M240 866 c-12 -21 -20 -39 -17 -42 6 -7 66 -9 72 -2 3 2 -3 22 -14
42 l-18 38 -23 -36z"/>
<path d="M1485 770 c-3 -6 1 -7 9 -4 18 7 21 14 7 14 -6 0 -13 -4 -16 -10z"/>
<path d="M339 738 c-7 -13 -17 -26 -23 -30 -20 -13 25 -21 48 -8 20 10 22 15
12 36 -14 30 -22 30 -37 2z"/>
<path d="M2320 680 c-7 -17 -10 -33 -6 -37 3 -3 6 1 6 10 0 8 7 22 15 31 8 8
11 17 6 20 -5 3 -14 -8 -21 -24z"/>
<path d="M421 616 c-16 -29 -8 -46 19 -39 23 6 24 10 7 41 l-13 23 -13 -25z"/>
<path d="M1080 580 l-25 -20 32 0 c26 0 30 3 26 20 -3 11 -6 20 -7 20 0 0 -12
-9 -26 -20z"/>
<path d="M2310 591 c0 -6 -6 -11 -14 -11 -7 0 -19 -7 -26 -15 -11 -13 -7 -15
24 -15 29 0 36 4 36 19 0 11 -4 23 -10 26 -5 3 -10 1 -10 -4z"/>
<path d="M1000 582 c0 -10 23 -22 41 -22 5 0 9 5 9 11 0 5 -5 7 -10 4 -6 -4
-17 -1 -25 5 -9 7 -15 8 -15 2z"/>
<path d="M1174 573 c10 -10 46 -11 40 -1 -3 4 -15 8 -26 8 -12 0 -18 -3 -14
-7z"/>
<path d="M1135 549 c-24 -5 -25 -7 -7 -8 12 0 22 -6 22 -12 0 -7 10 -9 25 -7
14 3 28 1 31 -4 8 -13 165 1 180 17 11 11 9 13 -9 13 -12 0 -65 2 -117 4 -52
2 -108 1 -125 -3z"/>
<path d="M2205 460 c-3 -5 -1 -10 4 -10 6 0 11 5 11 10 0 6 -2 10 -4 10 -3 0
-8 -4 -11 -10z"/>
<path d="M1555 210 c3 -5 13 -10 21 -10 8 0 14 5 14 10 0 6 -9 10 -21 10 -11
0 -17 -4 -14 -10z"/>
<path d="M1190 190 c0 -5 9 -10 21 -10 11 0 17 5 14 10 -3 6 -13 10 -21 10 -8
0 -14 -4 -14 -10z"/>
</g>
</svg>
